<svg width="114" height="30" viewBox="0 0 114 30" fill="none" xmlns="http://www.w3.org/2000/svg">
<rect width="114" height="30" rx="15" fill="#DFF4FF"/>
<path d="M15 7.5C15 14.1912 15 1.85294 15 22.5" stroke="#0CA8FF" stroke-width="2.93684" stroke-linecap="round" stroke-dasharray="1.47 4.41"/>
<path d="M43.1298 20.168C42.4671 20.168 41.8605 20.0467 41.3098 19.804C40.7591 19.552 40.2925 19.2113 39.9098 18.782C39.5271 18.3527 39.2518 17.872 39.0838 17.34L40.2738 16.85C40.5258 17.522 40.8991 18.04 41.3938 18.404C41.8978 18.7587 42.4858 18.936 43.1578 18.936C43.5685 18.936 43.9278 18.8707 44.2358 18.74C44.5438 18.6093 44.7818 18.4273 44.9498 18.194C45.1271 17.9513 45.2158 17.6713 45.2158 17.354C45.2158 16.9153 45.0898 16.57 44.8378 16.318C44.5951 16.0567 44.2358 15.8607 43.7598 15.73L41.8418 15.142C41.0858 14.9087 40.5071 14.54 40.1058 14.036C39.7045 13.532 39.5038 12.9533 39.5038 12.3C39.5038 11.7307 39.6391 11.2313 39.9098 10.802C40.1898 10.3633 40.5725 10.0227 41.0578 9.78C41.5525 9.528 42.1125 9.402 42.7378 9.402C43.3631 9.402 43.9278 9.514 44.4318 9.738C44.9451 9.962 45.3791 10.2653 45.7338 10.648C46.0885 11.0213 46.3498 11.4507 46.5178 11.936L45.3418 12.426C45.1178 11.838 44.7818 11.3947 44.3338 11.096C43.8858 10.788 43.3585 10.634 42.7518 10.634C42.3785 10.634 42.0471 10.6993 41.7578 10.83C41.4778 10.9513 41.2585 11.1333 41.0998 11.376C40.9505 11.6093 40.8758 11.8893 40.8758 12.216C40.8758 12.5987 40.9971 12.9393 41.2398 13.238C41.4825 13.5367 41.8511 13.7653 42.3458 13.924L44.0958 14.442C44.9171 14.694 45.5378 15.0533 45.9578 15.52C46.3778 15.9867 46.5878 16.5653 46.5878 17.256C46.5878 17.8253 46.4385 18.3293 46.1398 18.768C45.8505 19.2067 45.4445 19.552 44.9218 19.804C44.4085 20.0467 43.8111 20.168 43.1298 20.168ZM48.4426 20V12.454H49.7446V20H48.4426ZM48.4426 11.25V9.57H49.7446V11.25H48.4426ZM55.1948 20.168C54.4855 20.168 53.8462 19.9953 53.2768 19.65C52.7168 19.3047 52.2735 18.8333 51.9468 18.236C51.6202 17.6387 51.4568 16.9713 51.4568 16.234C51.4568 15.478 51.6202 14.806 51.9468 14.218C52.2735 13.6207 52.7168 13.1493 53.2768 12.804C53.8462 12.4587 54.4855 12.286 55.1948 12.286C55.8202 12.286 56.3755 12.4213 56.8608 12.692C57.3462 12.9533 57.7288 13.308 58.0088 13.756L57.7988 14.078V9.402H59.1148V20H57.8408V18.39L58.0088 18.614C57.7475 19.1087 57.3648 19.4913 56.8608 19.762C56.3662 20.0327 55.8108 20.168 55.1948 20.168ZM55.3068 18.908C55.7828 18.908 56.2075 18.7913 56.5808 18.558C56.9542 18.3247 57.2482 18.0073 57.4628 17.606C57.6868 17.1953 57.7988 16.738 57.7988 16.234C57.7988 15.7207 57.6868 15.2633 57.4628 14.862C57.2482 14.4513 56.9542 14.1293 56.5808 13.896C56.2075 13.6627 55.7828 13.546 55.3068 13.546C54.8402 13.546 54.4155 13.6673 54.0328 13.91C53.6595 14.1433 53.3655 14.4607 53.1508 14.862C52.9362 15.254 52.8288 15.7113 52.8288 16.234C52.8288 16.738 52.9362 17.1953 53.1508 17.606C53.3655 18.0073 53.6595 18.3247 54.0328 18.558C54.4062 18.7913 54.8308 18.908 55.3068 18.908ZM64.6021 20.168C63.8741 20.168 63.2254 19.9953 62.6561 19.65C62.0867 19.3047 61.6387 18.8333 61.3121 18.236C60.9854 17.6293 60.8221 16.9527 60.8221 16.206C60.8221 15.45 60.9807 14.778 61.2981 14.19C61.6247 13.602 62.0634 13.14 62.6141 12.804C63.1741 12.4587 63.7994 12.286 64.4901 12.286C65.0501 12.286 65.5447 12.3887 65.9741 12.594C66.4127 12.79 66.7814 13.0607 67.0801 13.406C67.3881 13.742 67.6214 14.1293 67.7801 14.568C67.9481 14.9973 68.0321 15.4453 68.0321 15.912C68.0321 16.0147 68.0227 16.1313 68.0041 16.262C67.9947 16.3833 67.9807 16.5 67.9621 16.612H61.7741V15.492H67.2061L66.5901 15.996C66.6741 15.5107 66.6274 15.0767 66.4501 14.694C66.2727 14.3113 66.0114 14.008 65.6661 13.784C65.3207 13.56 64.9287 13.448 64.4901 13.448C64.0514 13.448 63.6501 13.56 63.2861 13.784C62.9221 14.008 62.6374 14.33 62.4321 14.75C62.2361 15.1607 62.1567 15.6507 62.1941 16.22C62.1567 16.7707 62.2407 17.256 62.4461 17.676C62.6607 18.0867 62.9594 18.4087 63.3421 18.642C63.7341 18.866 64.1587 18.978 64.6161 18.978C65.1201 18.978 65.5447 18.8613 65.8901 18.628C66.2354 18.3947 66.5154 18.096 66.7301 17.732L67.8221 18.292C67.6727 18.6373 67.4394 18.9547 67.1221 19.244C66.8141 19.524 66.4454 19.748 66.0161 19.916C65.5961 20.084 65.1247 20.168 64.6021 20.168ZM73.8856 20L71.2956 12.454H72.7376L74.7956 18.768L74.2916 18.754L76.3076 12.454H77.5396L79.5556 18.754L79.0516 18.768L81.1236 12.454H82.5516L79.9616 20H78.7156L76.7276 13.7H77.1196L75.1316 20H73.8856ZM85.6546 20.168C85.1599 20.168 84.7212 20.0793 84.3386 19.902C83.9652 19.7153 83.6712 19.4633 83.4566 19.146C83.2419 18.8193 83.1346 18.446 83.1346 18.026C83.1346 17.6247 83.2186 17.2653 83.3866 16.948C83.5639 16.6213 83.8346 16.346 84.1986 16.122C84.5719 15.898 85.0386 15.7393 85.5986 15.646L88.3986 15.184V16.276L85.8926 16.696C85.4072 16.78 85.0526 16.934 84.8286 17.158C84.6139 17.382 84.5066 17.6573 84.5066 17.984C84.5066 18.292 84.6279 18.5487 84.8706 18.754C85.1226 18.9593 85.4352 19.062 85.8086 19.062C86.2846 19.062 86.6952 18.964 87.0406 18.768C87.3952 18.5627 87.6706 18.2873 87.8666 17.942C88.0719 17.5967 88.1746 17.214 88.1746 16.794V14.876C88.1746 14.4653 88.0206 14.134 87.7126 13.882C87.4139 13.6207 87.0172 13.49 86.5226 13.49C86.0932 13.49 85.7106 13.602 85.3746 13.826C85.0479 14.0407 84.8052 14.33 84.6466 14.694L83.5126 14.106C83.6526 13.7607 83.8766 13.4527 84.1846 13.182C84.4926 12.902 84.8519 12.6827 85.2626 12.524C85.6732 12.3653 86.1026 12.286 86.5506 12.286C87.1292 12.286 87.6379 12.398 88.0766 12.622C88.5152 12.8367 88.8559 13.14 89.0986 13.532C89.3506 13.9147 89.4766 14.3627 89.4766 14.876V20H88.2026V18.572L88.4406 18.656C88.2819 18.9547 88.0672 19.216 87.7966 19.44C87.5259 19.664 87.2086 19.8413 86.8446 19.972C86.4806 20.1027 86.0839 20.168 85.6546 20.168ZM91.4953 20V9.402H92.7973V20H91.4953ZM94.8176 20V9.402H96.1196V16.668L95.5876 16.542L99.5916 12.454H101.258L98.3596 15.492L101.454 20H99.9136L97.0856 15.912L97.8976 15.87L95.6996 18.166L96.1196 17.214V20H94.8176Z" fill="#0CA8FF"/>
</svg>
