<svg width="110" height="30" viewBox="0 0 110 30" fill="none" xmlns="http://www.w3.org/2000/svg">
<rect width="110" height="30" rx="15" fill="#F4E6FF"/>
<circle cx="15" cy="15" r="9" fill="#9500FF"/>
<path d="M43.1806 20.168C42.5179 20.168 41.9112 20.0467 41.3606 19.804C40.8099 19.552 40.3432 19.2113 39.9606 18.782C39.5779 18.3527 39.3026 17.872 39.1346 17.34L40.3246 16.85C40.5766 17.522 40.9499 18.04 41.4446 18.404C41.9486 18.7587 42.5366 18.936 43.2086 18.936C43.6192 18.936 43.9786 18.8707 44.2866 18.74C44.5946 18.6093 44.8326 18.4273 45.0006 18.194C45.1779 17.9513 45.2666 17.6713 45.2666 17.354C45.2666 16.9153 45.1406 16.57 44.8886 16.318C44.6459 16.0567 44.2866 15.8607 43.8106 15.73L41.8926 15.142C41.1366 14.9087 40.5579 14.54 40.1566 14.036C39.7552 13.532 39.5546 12.9533 39.5546 12.3C39.5546 11.7307 39.6899 11.2313 39.9606 10.802C40.2406 10.3633 40.6232 10.0227 41.1086 9.78C41.6032 9.528 42.1632 9.402 42.7886 9.402C43.4139 9.402 43.9786 9.514 44.4826 9.738C44.9959 9.962 45.4299 10.2653 45.7846 10.648C46.1392 11.0213 46.4006 11.4507 46.5686 11.936L45.3926 12.426C45.1686 11.838 44.8326 11.3947 44.3846 11.096C43.9366 10.788 43.4092 10.634 42.8026 10.634C42.4292 10.634 42.0979 10.6993 41.8086 10.83C41.5286 10.9513 41.3092 11.1333 41.1506 11.376C41.0012 11.6093 40.9266 11.8893 40.9266 12.216C40.9266 12.5987 41.0479 12.9393 41.2906 13.238C41.5332 13.5367 41.9019 13.7653 42.3966 13.924L44.1466 14.442C44.9679 14.694 45.5886 15.0533 46.0086 15.52C46.4286 15.9867 46.6386 16.5653 46.6386 17.256C46.6386 17.8253 46.4892 18.3293 46.1906 18.768C45.9012 19.2067 45.4952 19.552 44.9726 19.804C44.4592 20.0467 43.8619 20.168 43.1806 20.168ZM48.4934 20V9.402H49.7954V16.668L49.2634 16.542L53.2674 12.454H54.9334L52.0354 15.492L55.1294 20H53.5894L50.7614 15.912L51.5734 15.87L49.3754 18.166L49.7954 17.214V20H48.4934ZM56.706 23.08C56.538 23.08 56.37 23.066 56.202 23.038C56.034 23.0193 55.8753 22.9773 55.726 22.912V21.75C55.8287 21.7593 55.9547 21.778 56.104 21.806C56.2627 21.834 56.4167 21.848 56.566 21.848C57.0047 21.848 57.336 21.75 57.56 21.554C57.7933 21.358 58.0127 21.0267 58.218 20.56L58.694 19.426L58.666 20.56L55.446 12.454H56.86L59.366 18.894H58.946L61.438 12.454H62.88L59.478 20.896C59.3193 21.2973 59.114 21.666 58.862 22.002C58.6193 22.338 58.3207 22.5993 57.966 22.786C57.6113 22.982 57.1913 23.08 56.706 23.08ZM64.1363 16.822V15.632H69.3863V16.822H64.1363ZM73.2254 20L70.6354 12.454H72.0774L74.1354 18.768L73.6314 18.754L75.6474 12.454H76.8794L78.8954 18.754L78.3914 18.768L80.4634 12.454H81.8914L79.3014 20H78.0554L76.0674 13.7H76.4594L74.4714 20H73.2254ZM84.9944 20.168C84.4997 20.168 84.0611 20.0793 83.6784 19.902C83.3051 19.7153 83.0111 19.4633 82.7964 19.146C82.5817 18.8193 82.4744 18.446 82.4744 18.026C82.4744 17.6247 82.5584 17.2653 82.7264 16.948C82.9037 16.6213 83.1744 16.346 83.5384 16.122C83.9117 15.898 84.3784 15.7393 84.9384 15.646L87.7384 15.184V16.276L85.2324 16.696C84.7471 16.78 84.3924 16.934 84.1684 17.158C83.9537 17.382 83.8464 17.6573 83.8464 17.984C83.8464 18.292 83.9677 18.5487 84.2104 18.754C84.4624 18.9593 84.7751 19.062 85.1484 19.062C85.6244 19.062 86.0351 18.964 86.3804 18.768C86.7351 18.5627 87.0104 18.2873 87.2064 17.942C87.4117 17.5967 87.5144 17.214 87.5144 16.794V14.876C87.5144 14.4653 87.3604 14.134 87.0524 13.882C86.7537 13.6207 86.3571 13.49 85.8624 13.49C85.4331 13.49 85.0504 13.602 84.7144 13.826C84.3877 14.0407 84.1451 14.33 83.9864 14.694L82.8524 14.106C82.9924 13.7607 83.2164 13.4527 83.5244 13.182C83.8324 12.902 84.1917 12.6827 84.6024 12.524C85.0131 12.3653 85.4424 12.286 85.8904 12.286C86.4691 12.286 86.9777 12.398 87.4164 12.622C87.8551 12.8367 88.1957 13.14 88.4384 13.532C88.6904 13.9147 88.8164 14.3627 88.8164 14.876V20H87.5424V18.572L87.7804 18.656C87.6217 18.9547 87.4071 19.216 87.1364 19.44C86.8657 19.664 86.5484 19.8413 86.1844 19.972C85.8204 20.1027 85.4237 20.168 84.9944 20.168ZM91.2411 23.08C91.0731 23.08 90.9051 23.066 90.7371 23.038C90.5691 23.0193 90.4105 22.9773 90.2611 22.912V21.75C90.3638 21.7593 90.4898 21.778 90.6391 21.806C90.7978 21.834 90.9518 21.848 91.1011 21.848C91.5398 21.848 91.8711 21.75 92.0951 21.554C92.3285 21.358 92.5478 21.0267 92.7531 20.56L93.2291 19.426L93.2011 20.56L89.9811 12.454H91.3951L93.9011 18.894H93.4811L95.9731 12.454H97.4151L94.0131 20.896C93.8545 21.2973 93.6491 21.666 93.3971 22.002C93.1545 22.338 92.8558 22.5993 92.5011 22.786C92.1465 22.982 91.7265 23.08 91.2411 23.08Z" fill="#9500FF" fill-opacity="0.9"/>
</svg>
