<svg width="315" height="259" viewBox="0 0 315 259" fill="none" xmlns="http://www.w3.org/2000/svg">
<g clip-path="url(#clip0_217_5477)">
<path d="M62.6929 136.953C62.6929 128.297 69.71 121.28 78.366 121.28H149.268C157.925 121.28 164.942 128.297 164.942 136.953C164.942 145.609 157.925 152.627 149.268 152.627H78.366C69.71 152.627 62.6929 145.609 62.6929 136.953Z" fill="#FFCC33"/>
<g clip-path="url(#clip1_217_5477)">
<path d="M178.175 225.193H227.821L227.817 -0.373047H89.9341V34.3608C97.0761 31.6882 104.809 30.2269 112.884 30.2269C127.863 30.2269 141.668 35.2558 152.702 43.7174C167.022 54.6993 176.676 71.4632 178.172 90.5197C178.172 88.8861 178.172 87.26 178.172 85.6428L178.172 90.5197C178.173 93.9413 178.174 97.396 178.176 100.872C178.183 114.942 178.197 129.362 178.212 143.352L178.212 143.37V143.378L178.218 149.424C178.252 182.588 178.28 209.148 178.175 225.193Z" fill="#7A0019"/>
</g>
<g clip-path="url(#clip2_217_5477)">
<path d="M242.015 224.446H192.369L192.373 0H330.256L330.256 33.6143C323.114 30.9418 315.38 29.4805 307.306 29.4805C292.327 29.4805 278.522 34.5094 267.488 42.971C253.168 53.9528 243.514 70.7168 242.018 89.7732C242.018 88.1396 242.018 86.5136 242.018 84.8963L242.018 89.7732C242.017 93.1949 242.016 96.6496 242.014 100.126C242.007 114.196 241.993 128.616 241.978 142.605L241.978 142.623V142.632L241.972 148.678C241.938 181.842 241.91 208.401 242.015 224.446Z" fill="#7A0019"/>
</g>
<g clip-path="url(#clip3_217_5477)">
<path fill-rule="evenodd" clip-rule="evenodd" d="M106.354 152.584L106.397 152.541L106.492 152.446C106.456 152.463 106.419 152.479 106.382 152.495C106.347 152.511 106.313 152.526 106.279 152.541L106.354 152.584Z" fill="#FFCC33"/>
<path d="M90.1207 0H0V224.405H196.474V121.067L138.26 121.051L106.492 152.446L106.397 152.541L162.889 152.584V184.49H47.206V94.9289C47.206 90.1985 48.2304 85.6323 49.0054 81.2712C52.3034 65.7248 61.1171 52.2162 73.3018 42.8904C77.1289 39.9612 81.2886 37.4446 85.7143 35.4072C87.1557 34.7436 88.6252 34.1309 90.1207 33.5713V0Z" fill="#FFCC33"/>
<g filter="url(#filter0_d_217_5477)">
<path fill-rule="evenodd" clip-rule="evenodd" d="M82.0892 66.7884C90.2071 58.6705 101.217 54.1099 112.698 54.1099C124.178 54.1099 135.189 58.6705 143.307 66.7884C151.425 74.9064 155.985 85.9167 155.985 97.3972C155.985 108.878 151.425 119.888 143.307 128.006L112.698 158.615L82.0892 128.006C78.0693 123.987 74.8805 119.215 72.705 113.963C70.5294 108.711 69.4097 103.082 69.4097 97.3972C69.4097 91.7125 70.5294 86.0836 72.705 80.8317C74.8805 75.5798 78.0693 70.8079 82.0892 66.7884ZM112.698 109.764C115.978 109.764 119.124 108.461 121.443 106.142C123.762 103.823 125.065 100.677 125.065 97.3972C125.065 94.1172 123.762 90.9716 121.443 88.6523C119.124 86.333 115.978 85.03 112.698 85.03C109.418 85.03 106.272 86.333 103.953 88.6523C101.634 90.9716 100.331 94.1172 100.331 97.3972C100.331 100.677 101.634 103.823 103.953 106.142C106.272 108.461 109.418 109.764 112.698 109.764Z" fill="#7A0019"/>
</g>
</g>
</g>
<path d="M11.995 254.603C10.8081 254.603 9.70275 254.388 8.679 253.958C7.65526 253.528 6.75763 252.927 5.98612 252.155C5.2146 251.384 4.61371 250.479 4.18344 249.44C3.75317 248.402 3.53804 247.267 3.53804 246.035C3.53804 244.804 3.74575 243.669 4.16119 242.63C4.57662 241.577 5.16267 240.672 5.91935 239.915C6.67603 239.144 7.55882 238.55 8.56773 238.135C9.59147 237.704 10.7042 237.489 11.906 237.489C13.1078 237.489 14.1835 237.689 15.133 238.09C16.0974 238.491 16.9135 239.025 17.5811 239.692C18.2488 240.36 18.7235 241.102 19.0054 241.918L15.9565 243.387C15.6746 242.586 15.1775 241.925 14.4654 241.406C13.768 240.872 12.9149 240.605 11.906 240.605C10.9268 240.605 10.0662 240.835 9.32441 241.295C8.58256 241.755 8.00393 242.393 7.5885 243.209C7.1879 244.01 6.9876 244.952 6.9876 246.035C6.9876 247.118 7.20274 248.068 7.63301 248.884C8.06327 249.7 8.64933 250.338 9.39117 250.798C10.1479 251.258 11.0158 251.488 11.995 251.488C12.7517 251.488 13.4565 251.347 14.1093 251.065C14.7769 250.768 15.3111 250.345 15.7117 249.796C16.1271 249.247 16.3348 248.587 16.3348 247.816V246.436L17.9149 247.771H11.906V244.878H19.7844V246.636C19.7844 247.986 19.5618 249.166 19.1167 250.175C18.6716 251.169 18.0707 252 17.314 252.667C16.5722 253.32 15.7339 253.81 14.7992 254.136C13.8793 254.448 12.9446 254.603 11.995 254.603ZM40.3863 254.603C39.1845 254.603 38.0866 254.329 37.0925 253.78C36.1133 253.231 35.327 252.482 34.7335 251.532C34.1548 250.568 33.8655 249.477 33.8655 248.261C33.8655 247.029 34.1548 245.939 34.7335 244.989C35.327 244.04 36.1133 243.29 37.0925 242.741C38.0866 242.192 39.1845 241.918 40.3863 241.918C41.5881 241.918 42.6786 242.192 43.6578 242.741C44.6371 243.29 45.416 244.04 45.9946 244.989C46.5881 245.939 46.8849 247.029 46.8849 248.261C46.8849 249.477 46.5881 250.568 45.9946 251.532C45.416 252.482 44.6371 253.231 43.6578 253.78C42.6786 254.329 41.5881 254.603 40.3863 254.603ZM40.3863 251.599C40.9946 251.599 41.5213 251.458 41.9664 251.176C42.4264 250.894 42.7825 250.501 43.0347 249.997C43.3018 249.492 43.4353 248.914 43.4353 248.261C43.4353 247.608 43.3018 247.037 43.0347 246.547C42.7825 246.043 42.4264 245.649 41.9664 245.368C41.5213 245.071 40.9946 244.922 40.3863 244.922C39.778 244.922 39.2439 245.071 38.7839 245.368C38.324 245.649 37.9605 246.043 37.6934 246.547C37.4412 247.037 37.3151 247.608 37.3151 248.261C37.3151 248.914 37.4412 249.492 37.6934 249.997C37.9605 250.501 38.324 250.894 38.7839 251.176C39.2439 251.458 39.778 251.599 40.3863 251.599ZM61.537 258.787V242.185H64.6527V244.5L64.3634 243.832C64.764 243.224 65.3055 242.756 65.988 242.43C66.6854 242.089 67.4791 241.918 68.3693 241.918C69.5266 241.918 70.5726 242.2 71.5073 242.764C72.4421 243.327 73.1839 244.092 73.7329 245.056C74.2818 246.006 74.5563 247.074 74.5563 248.261C74.5563 249.433 74.2818 250.501 73.7329 251.465C73.1987 252.43 72.4643 253.194 71.5296 253.758C70.5949 254.322 69.534 254.603 68.3471 254.603C67.5162 254.603 66.7447 254.455 66.0325 254.158C65.3352 253.847 64.7714 253.394 64.3411 252.801L64.8753 252.111V258.787H61.537ZM67.9465 251.599C68.5696 251.599 69.1186 251.458 69.5934 251.176C70.0682 250.894 70.4391 250.501 70.7061 249.997C70.9732 249.492 71.1067 248.914 71.1067 248.261C71.1067 247.608 70.9732 247.037 70.7061 246.547C70.4391 246.043 70.0682 245.649 69.5934 245.368C69.1186 245.071 68.5696 244.922 67.9465 244.922C67.353 244.922 66.8189 245.063 66.3441 245.345C65.8842 245.627 65.5207 246.02 65.2536 246.525C65.0014 247.029 64.8753 247.608 64.8753 248.261C64.8753 248.914 65.0014 249.492 65.2536 249.997C65.5207 250.501 65.8842 250.894 66.3441 251.176C66.8189 251.458 67.353 251.599 67.9465 251.599ZM89.197 254.336V237.489H92.5353V244.589L92.1347 244.054C92.4166 243.327 92.8691 242.793 93.4922 242.452C94.1302 242.096 94.8721 241.918 95.7178 241.918C96.6376 241.918 97.4388 242.111 98.1213 242.497C98.8187 242.882 99.3602 243.424 99.746 244.121C100.132 244.804 100.325 245.605 100.325 246.525V254.336H96.9863V247.237C96.9863 246.762 96.8899 246.354 96.697 246.013C96.5189 245.672 96.2593 245.405 95.9181 245.212C95.5916 245.019 95.2059 244.922 94.7608 244.922C94.3305 244.922 93.9448 245.019 93.6035 245.212C93.2623 245.405 92.9952 245.672 92.8023 246.013C92.6243 246.354 92.5353 246.762 92.5353 247.237V254.336H89.197ZM121.058 254.603C119.768 254.603 118.647 254.322 117.698 253.758C116.748 253.179 116.014 252.408 115.495 251.443C114.975 250.479 114.716 249.411 114.716 248.238C114.716 247.022 114.983 245.939 115.517 244.989C116.066 244.04 116.8 243.29 117.72 242.741C118.64 242.192 119.678 241.918 120.836 241.918C121.8 241.918 122.653 242.074 123.395 242.385C124.137 242.682 124.76 243.105 125.265 243.654C125.784 244.203 126.177 244.841 126.444 245.568C126.711 246.28 126.845 247.059 126.845 247.905C126.845 248.142 126.83 248.379 126.8 248.617C126.785 248.839 126.748 249.032 126.689 249.195H117.586V246.747H124.797L123.217 247.905C123.365 247.267 123.358 246.703 123.195 246.213C123.032 245.709 122.742 245.316 122.327 245.034C121.926 244.737 121.429 244.589 120.836 244.589C120.257 244.589 119.76 244.73 119.345 245.011C118.929 245.293 118.618 245.709 118.41 246.258C118.202 246.807 118.121 247.474 118.165 248.261C118.106 248.943 118.187 249.544 118.41 250.063C118.632 250.583 118.974 250.991 119.434 251.287C119.894 251.569 120.45 251.71 121.103 251.71C121.696 251.71 122.201 251.592 122.616 251.354C123.046 251.117 123.38 250.79 123.618 250.375L126.288 251.644C126.051 252.237 125.673 252.756 125.153 253.201C124.649 253.647 124.048 253.995 123.351 254.247C122.653 254.485 121.889 254.603 121.058 254.603ZM141.496 254.336V242.185H144.612V245.1L144.389 244.678C144.656 243.654 145.094 242.964 145.702 242.608C146.325 242.237 147.06 242.052 147.905 242.052H148.618V244.945H147.572C146.756 244.945 146.095 245.197 145.591 245.701C145.086 246.191 144.834 246.888 144.834 247.793V254.336H141.496ZM182.678 254.336V240.761H178.471V237.756H190.267V240.761H186.127V254.336H182.678ZM207.887 254.603C206.907 254.603 206.069 254.396 205.372 253.98C204.689 253.55 204.17 252.957 203.814 252.2C203.458 251.443 203.28 250.56 203.28 249.552V242.185H206.618V249.284C206.618 249.744 206.707 250.152 206.885 250.509C207.078 250.85 207.345 251.117 207.686 251.31C208.028 251.503 208.413 251.599 208.844 251.599C209.289 251.599 209.675 251.503 210.001 251.31C210.342 251.117 210.602 250.85 210.78 250.509C210.973 250.152 211.069 249.744 211.069 249.284V242.185H214.407V254.336H211.292V251.933L211.47 252.467C211.188 253.194 210.728 253.736 210.09 254.092C209.467 254.433 208.732 254.603 207.887 254.603ZM229.533 254.336V242.185H232.649V244.589L232.471 244.054C232.752 243.327 233.205 242.793 233.828 242.452C234.466 242.096 235.208 241.918 236.054 241.918C236.974 241.918 237.775 242.111 238.457 242.497C239.155 242.882 239.696 243.424 240.082 244.121C240.468 244.804 240.661 245.605 240.661 246.525V254.336H237.322V247.237C237.322 246.762 237.226 246.354 237.033 246.013C236.855 245.672 236.595 245.405 236.254 245.212C235.928 245.019 235.542 244.922 235.097 244.922C234.666 244.922 234.281 245.019 233.939 245.212C233.598 245.405 233.331 245.672 233.138 246.013C232.96 246.354 232.871 246.762 232.871 247.237V254.336H229.533ZM255.541 254.336V242.185H258.657V244.589L258.479 244.054C258.761 243.327 259.213 242.793 259.836 242.452C260.474 242.096 261.216 241.918 262.062 241.918C262.982 241.918 263.783 242.111 264.465 242.497C265.163 242.882 265.704 243.424 266.09 244.121C266.476 244.804 266.669 245.605 266.669 246.525V254.336H263.33V247.237C263.33 246.762 263.234 246.354 263.041 246.013C262.863 245.672 262.603 245.405 262.262 245.212C261.936 245.019 261.55 244.922 261.105 244.922C260.675 244.922 260.289 245.019 259.948 245.212C259.606 245.405 259.339 245.672 259.146 246.013C258.968 246.354 258.879 246.762 258.879 247.237V254.336H255.541ZM287.402 254.603C286.112 254.603 284.991 254.322 284.042 253.758C283.092 253.179 282.358 252.408 281.839 251.443C281.319 250.479 281.06 249.411 281.06 248.238C281.06 247.022 281.327 245.939 281.861 244.989C282.41 244.04 283.144 243.29 284.064 242.741C284.984 242.192 286.023 241.918 287.18 241.918C288.144 241.918 288.997 242.074 289.739 242.385C290.481 242.682 291.104 243.105 291.609 243.654C292.128 244.203 292.521 244.841 292.788 245.568C293.055 246.28 293.189 247.059 293.189 247.905C293.189 248.142 293.174 248.379 293.144 248.617C293.129 248.839 293.092 249.032 293.033 249.195H283.931V246.747H291.141L289.561 247.905C289.71 247.267 289.702 246.703 289.539 246.213C289.376 245.709 289.086 245.316 288.671 245.034C288.27 244.737 287.773 244.589 287.18 244.589C286.601 244.589 286.104 244.73 285.689 245.011C285.273 245.293 284.962 245.709 284.754 246.258C284.546 246.807 284.465 247.474 284.509 248.261C284.45 248.943 284.532 249.544 284.754 250.063C284.977 250.583 285.318 250.991 285.778 251.287C286.238 251.569 286.794 251.71 287.447 251.71C288.04 251.71 288.545 251.592 288.96 251.354C289.391 251.117 289.724 250.79 289.962 250.375L292.632 251.644C292.395 252.237 292.017 252.756 291.497 253.201C290.993 253.647 290.392 253.995 289.695 254.247C288.997 254.485 288.233 254.603 287.402 254.603ZM307.84 254.336V237.489H311.178V254.336H307.84Z" fill="#FFCC33"/>
<defs>
<filter id="filter0_d_217_5477" x="62.6191" y="49.7496" width="100.157" height="118.086" filterUnits="userSpaceOnUse" color-interpolation-filters="sRGB">
<feFlood flood-opacity="0" result="BackgroundImageFix"/>
<feColorMatrix in="SourceAlpha" type="matrix" values="0 0 0 0 0 0 0 0 0 0 0 0 0 0 0 0 0 0 127 0" result="hardAlpha"/>
<feOffset dy="2.43035"/>
<feGaussianBlur stdDeviation="3.39529"/>
<feComposite in2="hardAlpha" operator="out"/>
<feColorMatrix type="matrix" values="0 0 0 0 0 0 0 0 0 0 0 0 0 0 0 0 0 0 0.25 0"/>
<feBlend mode="normal" in2="BackgroundImageFix" result="effect1_dropShadow_217_5477"/>
<feBlend mode="normal" in="SourceGraphic" in2="effect1_dropShadow_217_5477" result="shape"/>
</filter>
<clipPath id="clip0_217_5477">
<rect width="314.956" height="224.276" fill="white"/>
</clipPath>
<clipPath id="clip1_217_5477">
<rect width="122.773" height="225.395" fill="white" transform="translate(105.234 -0.373047)"/>
</clipPath>
<clipPath id="clip2_217_5477">
<rect width="122.773" height="224.276" fill="white" transform="matrix(-1 0 0 1 314.956 0)"/>
</clipPath>
<clipPath id="clip3_217_5477">
<path d="M0 72.022C0 32.2454 32.2453 0 72.0219 0H196.661V224.276H0V72.022Z" fill="white"/>
</clipPath>
</defs>
</svg>
