<svg width="94" height="30" viewBox="0 0 94 30" fill="none" xmlns="http://www.w3.org/2000/svg">
<rect width="94" height="30" rx="15" fill="#FFF5E6"/>
<circle cx="15" cy="15" r="9" fill="#E68600"/>
<path d="M41.4625 20V10.83H38.6345V9.57H45.6345V10.83H42.8485V20H41.4625ZM48.9164 20.168C48.375 20.168 47.885 20.042 47.4464 19.79C47.017 19.538 46.681 19.188 46.4384 18.74C46.205 18.2827 46.0884 17.76 46.0884 17.172V12.454H47.3904V17.032C47.3904 17.4053 47.465 17.732 47.6144 18.012C47.773 18.292 47.9877 18.5113 48.2584 18.67C48.5384 18.8287 48.8557 18.908 49.2104 18.908C49.565 18.908 49.8777 18.8287 50.1484 18.67C50.4284 18.5113 50.643 18.2827 50.7924 17.984C50.951 17.6853 51.0304 17.3307 51.0304 16.92V12.454H52.3464V20H51.0724V18.53L51.2824 18.656C51.105 19.132 50.8017 19.5053 50.3724 19.776C49.9524 20.0373 49.467 20.168 48.9164 20.168ZM54.3635 20V12.454H55.6375V13.924L55.4275 13.798C55.6141 13.322 55.9128 12.9533 56.3235 12.692C56.7435 12.4213 57.2335 12.286 57.7935 12.286C58.3348 12.286 58.8155 12.4073 59.2355 12.65C59.6648 12.8927 60.0008 13.2287 60.2435 13.658C60.4955 14.0873 60.6215 14.5727 60.6215 15.114V20H59.3055V15.534C59.3055 15.114 59.2308 14.7593 59.0815 14.47C58.9321 14.1807 58.7175 13.9567 58.4375 13.798C58.1668 13.63 57.8541 13.546 57.4995 13.546C57.1448 13.546 56.8275 13.63 56.5475 13.798C56.2768 13.9567 56.0621 14.1853 55.9035 14.484C55.7448 14.7733 55.6655 15.1233 55.6655 15.534V20H54.3635ZM62.4846 20V12.454H63.7586V13.924L63.5486 13.798C63.7352 13.322 64.0339 12.9533 64.4446 12.692C64.8646 12.4213 65.3546 12.286 65.9146 12.286C66.4559 12.286 66.9366 12.4073 67.3566 12.65C67.7859 12.8927 68.1219 13.2287 68.3646 13.658C68.6166 14.0873 68.7426 14.5727 68.7426 15.114V20H67.4266V15.534C67.4266 15.114 67.3519 14.7593 67.2026 14.47C67.0532 14.1807 66.8386 13.9567 66.5586 13.798C66.2879 13.63 65.9752 13.546 65.6206 13.546C65.2659 13.546 64.9486 13.63 64.6686 13.798C64.3979 13.9567 64.1832 14.1853 64.0246 14.484C63.8659 14.7733 63.7866 15.1233 63.7866 15.534V20H62.4846ZM74.0777 20.168C73.3497 20.168 72.701 19.9953 72.1317 19.65C71.5623 19.3047 71.1143 18.8333 70.7877 18.236C70.461 17.6293 70.2977 16.9527 70.2977 16.206C70.2977 15.45 70.4563 14.778 70.7737 14.19C71.1003 13.602 71.539 13.14 72.0897 12.804C72.6497 12.4587 73.275 12.286 73.9657 12.286C74.5257 12.286 75.0203 12.3887 75.4497 12.594C75.8883 12.79 76.257 13.0607 76.5557 13.406C76.8637 13.742 77.097 14.1293 77.2557 14.568C77.4237 14.9973 77.5077 15.4453 77.5077 15.912C77.5077 16.0147 77.4983 16.1313 77.4797 16.262C77.4703 16.3833 77.4563 16.5 77.4377 16.612H71.2497V15.492H76.6817L76.0657 15.996C76.1497 15.5107 76.103 15.0767 75.9257 14.694C75.7483 14.3113 75.487 14.008 75.1417 13.784C74.7963 13.56 74.4043 13.448 73.9657 13.448C73.527 13.448 73.1257 13.56 72.7617 13.784C72.3977 14.008 72.113 14.33 71.9077 14.75C71.7117 15.1607 71.6323 15.6507 71.6697 16.22C71.6323 16.7707 71.7163 17.256 71.9217 17.676C72.1363 18.0867 72.435 18.4087 72.8177 18.642C73.2097 18.866 73.6343 18.978 74.0917 18.978C74.5957 18.978 75.0203 18.8613 75.3657 18.628C75.711 18.3947 75.991 18.096 76.2057 17.732L77.2977 18.292C77.1483 18.6373 76.915 18.9547 76.5977 19.244C76.2897 19.524 75.921 19.748 75.4917 19.916C75.0717 20.084 74.6003 20.168 74.0777 20.168ZM79.2053 20V9.402H80.5073V20H79.2053Z" fill="#E68600"/>
</svg>
